<?xml version="1.0" standalone="no"?>
<!DOCTYPE svg PUBLIC "-//W3C//DTD SVG 20010904//EN"
 "http://www.w3.org/TR/2001/REC-SVG-20010904/DTD/svg10.dtd">
<svg version="1.0" xmlns="http://www.w3.org/2000/svg"
 width="734.000000pt" height="734.000000pt" viewBox="0 0 734.000000 734.000000"
 preserveAspectRatio="xMidYMid meet">
<metadata>
Created by potrace 1.16, written by Peter Selinger 2001-2019
</metadata>
<g transform="translate(0.000000,734.000000) scale(0.100000,-0.100000)"
fill="#000000" stroke="none">
<path d="M3384 7196 c-5 -13 41 -510 52 -563 3 -16 12 -23 29 -23 21 0 23 4
19 33 -7 47 -54 529 -54 550 0 21 -38 24 -46 3z"/>
<path d="M3960 7208 c0 -2 -14 -133 -30 -292 -17 -159 -30 -293 -30 -297 0 -5
11 -9 25 -9 14 0 25 1 25 3 0 1 13 132 29 292 30 295 30 304 -6 305 -7 0 -13
-1 -13 -2z"/>
<path d="M3090 7162 c0 -10 96 -486 105 -524 5 -21 13 -28 31 -28 13 0 24 2
24 5 0 2 -25 127 -55 276 -30 149 -55 273 -55 275 0 2 -11 4 -25 4 -14 0 -25
-4 -25 -8z"/>
<path d="M4246 7153 c-9 -29 -106 -514 -106 -529 0 -8 10 -14 23 -14 23 0 26
9 76 259 29 142 55 268 58 280 4 17 1 21 -20 21 -16 0 -28 -7 -31 -17z"/>
<path d="M2822 7112 c-16 -2 -21 -9 -18 -20 63 -211 480 -1539 485 -1545 10
-10 41 2 41 17 0 13 -466 1514 -477 1536 -5 9 -18 14 -31 12z"/>
<path d="M4534 7107 c-12 -33 -483 -1551 -481 -1553 1 -1 12 -4 24 -8 19 -6
23 0 42 56 62 190 461 1482 461 1493 0 17 -40 27 -46 12z"/>
<path d="M2525 7021 c-3 -6 139 -350 316 -766 298 -698 324 -755 343 -749 12
4 23 8 24 10 3 2 -576 1372 -629 1487 -12 26 -42 36 -54 18z"/>
<path d="M4812 7013 c-20 -38 -632 -1482 -632 -1491 0 -8 42 -25 45 -19 9 14
635 1496 637 1507 5 22 -39 25 -50 3z"/>
<path d="M2257 6918 c-15 -12 24 -86 383 -738 403 -730 410 -743 442 -712 7 7
-786 1455 -800 1460 -4 1 -15 -3 -25 -10z"/>
<path d="M3681 6907 c-6 -16 -11 -31 -11 -34 0 -3 -20 -70 -45 -149 l-46 -144
-192 -2 -192 -3 145 -104 c80 -57 149 -107 153 -111 4 -4 -17 -85 -47 -180
-30 -96 -53 -176 -51 -178 2 -3 71 45 152 105 l147 111 145 -110 c80 -60 147
-105 149 -99 2 6 -19 82 -47 170 -28 87 -51 163 -51 168 0 5 65 56 145 114 79
57 144 107 145 111 0 4 -84 9 -187 10 l-187 3 -51 160 c-66 207 -60 196 -74
162z"/>
<path d="M5082 6898 c-11 -18 -192 -346 -402 -728 -351 -638 -380 -695 -364
-707 10 -7 20 -13 23 -13 8 0 801 1443 801 1457 0 9 -21 23 -35 23 -2 0 -12
-15 -23 -32z"/>
<path d="M1987 6787 c-16 -11 24 -74 454 -697 259 -377 475 -689 479 -694 5
-4 18 -2 29 6 20 14 7 35 -454 704 -262 379 -479 690 -483 692 -4 1 -16 -4
-25 -11z"/>
<path d="M5328 6737 c-25 -34 -240 -345 -478 -691 -404 -586 -432 -630 -415
-642 10 -8 21 -14 24 -14 7 1 939 1354 947 1375 3 7 -3 18 -14 24 -18 10 -25
4 -64 -52z"/>
<path d="M1721 6627 c-8 -11 104 -148 515 -633 289 -340 538 -631 553 -647 24
-24 29 -26 46 -14 18 14 18 15 -1 39 -110 139 -1080 1268 -1089 1268 -7 0 -18
-6 -24 -13z"/>
<path d="M5081 5998 c-545 -643 -558 -661 -515 -675 10 -3 1095 1265 1103
1288 4 12 -17 29 -34 28 -5 0 -255 -289 -554 -641z"/>
<path d="M3223 6498 c3 -13 29 -141 59 -285 29 -145 56 -263 59 -263 3 0 11
18 18 40 11 37 7 64 -35 267 -38 184 -51 230 -68 245 -29 24 -39 22 -33 -4z"/>
<path d="M4129 6498 c-20 -20 -31 -56 -68 -245 -41 -205 -43 -226 -31 -265 11
-37 14 -40 21 -23 15 34 117 555 109 555 -4 0 -18 -10 -31 -22z"/>
<path d="M1471 6446 c-9 -11 109 -129 610 -612 514 -494 624 -596 638 -587 9
6 16 15 16 22 0 15 -1225 1191 -1240 1191 -7 0 -18 -6 -24 -14z"/>
<path d="M5320 5924 c-723 -696 -676 -649 -661 -668 8 -9 17 -16 20 -16 17 0
1236 1182 1236 1198 0 55 -48 13 -595 -514z"/>
<path d="M1238 6243 c-15 -17 29 -54 653 -543 368 -289 680 -532 694 -540 22
-13 26 -13 42 3 16 16 16 18 -2 31 -11 8 -321 251 -690 540 -369 289 -673 526
-676 526 -3 0 -13 -8 -21 -17z"/>
<path d="M5438 5724 c-375 -295 -683 -540 -683 -546 0 -6 8 -16 17 -21 13 -8
21 -7 35 4 10 9 311 245 668 524 358 279 659 516 669 526 16 15 17 21 6 33 -7
9 -16 16 -20 16 -5 0 -316 -241 -692 -536z"/>
<path d="M3677 6174 c-4 -4 -7 -137 -7 -296 l0 -288 25 0 25 0 -2 292 c-3 255
-5 293 -18 296 -9 1 -19 0 -23 -4z"/>
<path d="M3515 6050 c-18 -20 -18 -27 -1 -203 25 -261 24 -257 52 -257 13 0
24 3 24 8 -2 44 -48 464 -52 467 -3 3 -13 -4 -23 -15z"/>
<path d="M3822 5847 c-27 -275 -28 -257 3 -257 17 0 25 5 25 18 0 10 9 107 20
216 12 110 19 205 16 212 -3 7 -13 17 -24 23 -18 9 -20 -1 -40 -212z"/>
<path d="M3357 5932 c-15 -16 -13 -30 19 -182 19 -90 34 -168 34 -172 0 -11
38 -10 45 2 7 11 -66 370 -75 370 -4 0 -14 -8 -23 -18z"/>
<path d="M3995 5928 c-16 -69 -65 -324 -65 -340 0 -14 6 -19 23 -16 20 3 25
16 54 158 38 184 39 196 13 210 -16 9 -20 7 -25 -12z"/>
<path d="M1080 5849 l-245 -91 -220 -475 c-121 -261 -221 -478 -222 -481 -5
-11 509 -244 518 -235 4 4 53 107 109 228 56 121 103 221 104 223 2 2 448
-212 991 -474 706 -342 981 -480 968 -485 -165 -65 -1820 -807 -1853 -831
-101 -75 -135 -231 -77 -350 32 -65 81 -112 146 -141 62 -27 169 -27 231 1 25
11 475 228 1000 482 525 254 961 464 968 467 9 4 12 -23 12 -114 l0 -120 -182
-88 c-707 -343 -840 -416 -926 -509 l-42 -46 -85 0 -84 0 -256 -125 c-251
-121 -256 -125 -273 -164 l-17 -41 -69 0 c-63 0 -81 -5 -183 -52 -80 -38 -113
-58 -113 -70 0 -14 -8 -18 -36 -18 -44 0 -45 4 34 -139 31 -57 75 -123 96
-145 22 -23 40 -48 40 -56 1 -8 12 -20 26 -27 14 -7 19 -13 12 -13 -8 0 -5
-10 10 -30 19 -26 29 -30 72 -32 50 -1 50 -2 9 -5 -32 -3 -41 -8 -36 -19 4
-10 25 -15 77 -16 70 -2 70 -2 14 -5 -32 -2 -58 -7 -58 -11 0 -4 18 -28 41
-52 22 -25 48 -55 56 -67 14 -22 23 -23 152 -25 119 -2 124 -3 36 -5 -55 -2
-111 -5 -123 -8 -21 -5 -22 -8 -11 -22 12 -14 34 -15 159 -11 80 3 136 2 125
-3 -11 -4 -71 -8 -133 -8 -86 -1 -113 -4 -110 -13 3 -10 52 -14 179 -18 110
-4 140 -7 83 -8 -50 -1 -119 -5 -153 -8 -50 -6 -59 -9 -50 -20 9 -11 55 -15
198 -16 l186 -2 -172 -3 c-95 -2 -173 -7 -173 -12 0 -20 40 -41 81 -42 42 -2
42 -2 10 -8 -33 -6 -33 -6 -13 -24 19 -18 36 -19 229 -14 139 4 178 3 118 -3
-49 -4 -136 -8 -192 -9 -57 -1 -103 -5 -103 -10 0 -5 12 -17 27 -26 25 -16 43
-17 232 -8 113 5 210 6 214 3 10 -9 -118 -20 -232 -21 -47 0 -104 -3 -125 -7
l-40 -7 27 -18 c25 -16 45 -17 245 -9 119 5 223 5 231 2 8 -4 -81 -11 -197
-15 -117 -4 -212 -11 -212 -15 0 -5 15 -18 34 -29 33 -21 40 -21 192 -11 88 5
191 9 229 9 123 -2 21 -16 -171 -24 -96 -4 -174 -11 -174 -15 0 -5 17 -18 37
-30 l38 -22 215 15 c118 8 221 12 229 8 20 -12 -30 -19 -189 -27 -74 -3 -152
-9 -173 -13 l-39 -6 56 -28 56 -28 194 20 c182 19 233 20 221 1 -2 -4 -75 -13
-162 -20 -87 -7 -169 -16 -182 -20 -22 -5 -19 -9 32 -29 l57 -23 184 19 c138
14 188 16 200 8 12 -9 -21 -16 -144 -30 -88 -10 -160 -21 -160 -25 0 -4 34
-17 76 -30 l75 -24 131 21 c122 20 158 21 158 4 0 -4 -43 -15 -95 -25 -52 -10
-95 -21 -95 -25 0 -4 35 -16 78 -26 72 -16 83 -16 152 -2 65 13 78 13 102 1
32 -16 37 -34 11 -34 -15 -1 -16 -2 -3 -9 8 -5 65 -14 125 -19 101 -9 126 -9
114 2 -2 2 -456 252 -1009 556 -881 485 -1139 629 -982 551 l42 -22 10 23 c10
21 10 21 5 -4 -4 -23 0 -30 26 -43 24 -13 34 -14 45 -4 12 10 13 9 9 -3 -4
-11 8 -24 39 -42 24 -14 51 -26 59 -26 20 0 38 24 47 63 7 27 8 28 9 7 0 -14
-8 -39 -18 -56 l-19 -31 35 -17 c19 -9 38 -14 43 -11 4 3 10 -2 13 -10 4 -8
23 -22 44 -33 21 -10 129 -67 241 -127 185 -98 206 -107 235 -98 21 6 39 21
55 48 21 37 22 38 16 10 -3 -16 -15 -42 -25 -57 -10 -15 -19 -31 -19 -35 0
-12 142 -83 165 -83 31 0 65 29 82 67 8 20 16 33 18 31 10 -9 -16 -82 -36
-104 -12 -13 -21 -26 -18 -28 10 -9 248 -134 268 -141 32 -10 93 57 119 132
14 41 21 50 21 32 2 -44 -29 -128 -59 -162 l-29 -33 183 -97 c189 -100 222
-111 265 -81 35 25 51 75 58 179 3 52 9 95 13 95 19 0 32 -64 28 -129 -7 -92
-32 -140 -86 -168 l-43 -21 128 -68 c70 -37 142 -75 158 -85 l30 -19 -91 0
c-195 0 -475 42 -692 104 -901 260 -1619 941 -1916 1821 -169 499 -196 1052
-75 1554 16 68 28 126 26 128 -3 2 -44 15 -93 28 -63 17 -90 21 -95 13 -9 -15
-44 -167 -65 -283 -9 -49 -17 -91 -18 -92 -2 -3 -199 27 -202 30 -1 1 7 47 17
102 36 193 36 171 -6 179 -20 4 -39 6 -41 4 -17 -18 -70 -370 -80 -535 l-7
-113 40 0 41 0 6 78 c16 187 18 203 31 198 7 -2 49 -8 93 -11 44 -4 84 -10 89
-14 6 -3 6 -38 2 -86 -10 -104 -10 -438 0 -540 4 -44 7 -81 5 -83 -1 -2 -35
-8 -76 -13 -40 -5 -85 -11 -99 -14 -30 -5 -27 -16 -45 198 l-6 77 -41 0 -40 0
7 -112 c10 -166 63 -518 80 -536 2 -2 21 0 41 4 42 8 42 -13 6 182 -10 56 -16
102 -12 102 3 0 49 7 101 15 52 8 95 13 96 12 1 -1 9 -45 18 -97 26 -142 70
-310 116 -445 23 -66 42 -126 43 -133 2 -18 -171 -88 -184 -75 -5 5 -27 60
-49 123 -22 63 -46 116 -53 118 -7 2 -26 -2 -41 -8 -24 -9 -27 -14 -21 -38 29
-116 226 -572 247 -572 10 0 68 29 68 34 0 2 -27 59 -59 127 l-60 124 91 37
c50 21 93 38 97 37 3 0 41 -72 84 -160 43 -87 121 -223 173 -300 52 -78 94
-145 94 -149 0 -8 -145 -120 -154 -120 -3 0 -40 49 -81 110 -42 60 -79 110
-82 110 -12 0 -63 -35 -63 -43 0 -28 232 -339 348 -467 l50 -55 31 29 30 29
-77 91 c-43 50 -83 98 -90 107 -11 15 -2 25 64 78 42 33 79 61 83 61 3 0 21
-20 39 -45 74 -97 320 -342 435 -432 l29 -22 -63 -80 c-53 -69 -64 -79 -78
-69 -9 7 -57 47 -107 90 l-91 77 -27 -27 c-14 -16 -26 -31 -26 -34 0 -20 283
-246 434 -348 l80 -53 23 29 c12 16 23 34 22 39 0 6 -38 34 -83 64 -46 29 -96
63 -112 76 l-28 22 60 81 61 81 79 -55 c117 -82 299 -188 421 -246 60 -28 110
-52 112 -54 6 -5 -73 -184 -81 -184 -4 0 -60 25 -124 55 -64 30 -120 55 -124
55 -3 0 -14 -16 -23 -35 l-17 -35 88 -44 c121 -61 256 -117 396 -165 65 -23
120 -41 121 -41 9 0 26 73 19 80 -5 4 -52 22 -104 39 -52 18 -107 37 -122 44
l-26 12 35 90 c20 50 37 91 39 93 1 2 61 -17 132 -42 138 -47 317 -94 469
-121 86 -16 93 -19 88 -39 -2 -11 -9 -55 -15 -96 -6 -41 -13 -76 -15 -78 -5
-6 -137 15 -216 33 l-57 13 -6 -30 c-3 -17 -6 -36 -6 -43 0 -23 315 -75 548
-90 l102 -7 0 40 0 40 -52 5 c-29 4 -92 9 -140 13 l-87 6 5 42 c3 22 8 68 12
101 l7 60 85 -5 c126 -7 496 -6 566 2 l62 7 5 -28 c3 -15 9 -62 13 -103 l7
-76 -89 -6 c-49 -4 -110 -9 -136 -12 l-48 -6 0 -40 0 -40 103 7 c134 9 295 30
435 56 l112 21 -6 37 c-4 20 -8 38 -10 42 -1 3 -54 -5 -116 -18 -143 -29 -156
-29 -162 0 -11 48 -26 170 -23 174 2 2 44 10 93 19 130 22 312 69 454 117 69
23 129 42 133 42 8 0 77 -159 77 -176 0 -8 -111 -52 -206 -83 l-51 -17 11 -40
c9 -36 13 -39 35 -34 112 28 537 206 569 239 12 12 11 18 -2 45 -9 17 -21 31
-26 31 -6 0 -54 -22 -108 -49 -148 -74 -133 -76 -179 31 l-40 93 65 29 c113
49 282 145 420 236 l132 89 60 -79 c33 -43 60 -81 60 -83 0 -2 -48 -37 -107
-77 -60 -40 -110 -75 -113 -77 -10 -9 34 -73 47 -68 52 19 322 221 459 342
l59 52 -32 32 -32 32 -68 -62 c-37 -35 -84 -76 -104 -92 l-37 -29 -54 68 c-77
95 -76 90 -32 125 140 114 329 304 430 432 l31 39 82 -64 81 -63 -47 -56 c-25
-31 -67 -77 -92 -104 l-45 -47 32 -33 33 -32 52 59 c93 106 197 239 273 351
l75 110 -28 22 c-15 13 -32 23 -38 23 -5 0 -43 -50 -83 -110 -41 -61 -76 -110
-80 -110 -3 0 -39 25 -81 57 -42 31 -77 57 -79 58 -1 1 40 65 91 142 52 77
131 214 176 304 46 90 85 166 87 168 3 3 173 -66 183 -75 2 -1 -23 -57 -55
-124 l-58 -122 24 -19 c14 -10 32 -18 40 -16 28 4 193 375 244 545 l15 53 -25
9 c-54 21 -57 17 -102 -119 l-44 -129 -86 35 c-48 19 -90 38 -95 42 -4 4 17
81 47 172 52 159 98 341 112 445 3 28 9 56 13 62 5 8 33 7 100 -3 51 -8 95
-16 98 -19 6 -5 -12 -122 -33 -211 -7 -32 -12 -60 -11 -61 1 -1 20 -5 43 -8
l40 -7 23 120 c24 129 46 303 56 444 l6 87 -44 0 -44 0 -7 -131 c-3 -72 -8
-134 -10 -138 -5 -8 -192 12 -201 21 -3 3 -1 56 5 119 5 63 10 168 10 234 0
66 -5 171 -10 234 -6 63 -8 117 -5 120 9 9 196 28 200 20 3 -4 8 -66 11 -138
l7 -131 44 0 44 0 -6 88 c-10 140 -32 314 -56 443 l-23 120 -40 -7 c-23 -3
-42 -7 -43 -8 -1 -1 4 -29 11 -61 21 -89 39 -206 33 -211 -7 -7 -190 -34 -195
-29 -2 2 -12 48 -22 102 -25 135 -60 283 -68 283 -12 -1 -175 -50 -180 -54 -2
-3 8 -55 23 -116 55 -232 69 -362 69 -650 1 -357 -30 -559 -131 -874 -142
-440 -360 -794 -697 -1132 -215 -214 -394 -351 -646 -491 l-56 -31 -21 33 -21
32 80 18 c47 11 104 33 137 53 105 63 98 64 -89 22 -155 -35 -152 -35 -148
-13 2 13 46 26 207 60 178 38 208 47 243 74 21 17 37 33 34 36 -2 2 -88 -12
-190 -33 -164 -32 -213 -37 -194 -19 3 3 105 25 227 48 201 40 225 46 249 71
l27 28 -45 -6 c-25 -4 -138 -22 -252 -40 l-207 -32 -3 90 -3 91 -42 9 -43 9 0
62 c0 56 3 63 28 82 118 87 55 273 -92 273 -68 0 -111 -27 -138 -86 -24 -54
-19 -101 17 -155 23 -36 23 -36 5 -65 l-19 -28 -11 30 c-6 16 -41 104 -77 196
-63 158 -66 169 -50 186 11 12 17 36 17 65 l0 47 -136 0 -136 0 60 40 c119 80
216 212 258 355 12 42 18 93 18 170 -1 120 -23 207 -80 310 -40 72 -167 194
-242 234 -35 18 -62 36 -60 39 2 4 10 19 17 35 8 15 18 27 24 27 5 0 348 -164
763 -365 415 -200 774 -370 799 -376 170 -43 347 97 348 275 1 101 -43 194
-116 243 -24 17 -1743 784 -1839 822 -12 4 279 149 904 451 506 245 926 446
932 448 6 1 49 -81 96 -183 47 -101 90 -185 97 -185 6 0 63 24 127 54 l115 54
-89 193 c-50 106 -90 193 -90 194 0 6 131 58 135 54 2 -3 42 -87 89 -188 47
-102 88 -186 89 -188 4 -3 237 104 245 112 2 2 -90 206 -204 453 l-208 450
-175 65 c-97 36 -177 61 -179 57 -1 -4 38 -94 87 -201 l89 -194 -61 -28 c-33
-15 -64 -26 -69 -25 -5 2 -56 104 -113 228 -57 124 -108 226 -112 227 -5 2
-37 -76 -72 -173 l-64 -176 52 -110 c28 -61 50 -113 48 -114 -5 -5 -1424 -632
-1446 -639 -10 -3 -30 6 -51 24 l-35 28 33 53 c18 29 31 59 28 66 -12 32 -279
163 -333 164 -17 0 -25 -10 -38 -52 -10 -29 -21 -57 -25 -61 -4 -5 -55 2 -114
15 l-106 23 2 70 3 69 -40 8 c-51 9 -237 10 -300 2 l-47 -7 4 -71 3 -71 -80
-17 c-155 -34 -137 -38 -160 29 -15 43 -25 59 -41 61 -48 7 -334 -137 -334
-168 0 -9 14 -38 31 -65 l31 -49 -33 -28 c-19 -15 -41 -26 -49 -24 -33 7
-1570 692 -1570 698 0 4 47 110 105 234 58 125 105 228 105 229 0 3 -177 85
-182 84 -2 0 -113 -41 -248 -90z m5360 -521 l30 -63 -66 -33 c-36 -18 -67 -32
-68 -30 -14 28 -56 120 -56 123 0 4 111 59 128 64 2 1 16 -27 32 -61z m-359
-249 c-12 -12 -1940 -939 -1953 -939 -8 0 -73 26 -146 59 l-133 58 218 96
c120 53 610 269 1088 481 l870 384 31 -67 c17 -36 28 -69 25 -72z m-2295 -124
c0 -33 1 -65 2 -71 1 -6 30 -14 65 -18 34 -3 105 -18 157 -32 155 -43 143 -45
170 25 12 34 26 61 31 61 5 0 45 -18 89 -40 l80 -40 -30 -53 c-16 -30 -30 -60
-30 -68 0 -8 21 -27 46 -42 26 -15 45 -30 43 -32 -3 -2 -62 -29 -131 -59
l-128 -56 -73 30 c-253 101 -527 101 -773 -1 l-71 -29 -131 58 -131 58 40 25
c61 36 64 49 28 110 -29 51 -30 54 -12 67 28 22 144 73 153 67 4 -3 16 -28 26
-56 11 -28 25 -54 33 -57 7 -3 46 5 85 18 39 13 116 31 171 40 l100 17 3 72 3
72 92 -3 92 -3 1 -60z m39 -415 c70 -11 205 -50 205 -59 0 -3 -77 -39 -170
-80 l-170 -73 -165 73 c-91 40 -165 76 -165 80 0 4 23 15 51 24 121 41 292 55
414 35z m-440 -612 l126 -62 -33 -32 c-23 -22 -335 -177 -1022 -508 -543 -262
-1001 -480 -1017 -483 -17 -3 -48 2 -74 11 -118 45 -146 188 -53 270 22 19
361 175 978 447 520 230 950 418 957 418 6 1 68 -27 138 -61z m415 -64 c49
-20 65 -44 45 -70 -13 -19 -14 -19 -47 1 -26 16 -50 20 -120 19 -78 0 -88 2
-88 18 0 44 130 64 210 32z m-60 -87 l35 -12 5 -90 5 -90 35 -5 35 -5 1 -61
c1 -42 7 -72 21 -95 18 -31 23 -34 64 -32 24 1 59 5 77 8 l33 6 -30 34 c-76
87 -36 223 74 254 168 46 267 -176 125 -280 l-30 -23 60 -22 c247 -89 409
-336 386 -588 -21 -227 -176 -423 -394 -498 -96 -33 -258 -33 -354 0 -174 60
-312 200 -369 374 -28 86 -33 232 -10 313 24 86 78 182 141 248 l60 65 0 106
c0 58 -2 106 -3 106 -2 0 -28 -13 -58 -30 -30 -16 -57 -30 -61 -30 -5 0 -8 17
-8 38 0 34 4 40 35 55 l35 17 0 125 0 125 28 -1 c15 0 43 -5 62 -12z m-240
-397 c0 -5 -55 -37 -122 -71 -100 -50 -135 -74 -189 -128 -328 -329 -277 -973
86 -1091 22 -7 64 -16 95 -19 53 -6 55 -7 61 -41 4 -19 12 -60 18 -91 15 -71
59 -163 104 -215 43 -49 139 -102 200 -110 l44 -6 17 68 17 69 54 0 54 0 7
-68 7 -67 420 2 421 3 8 35 c30 118 25 110 70 110 l41 0 -6 -75 -5 -75 49 0
49 0 0 -118 0 -119 -272 -6 c-149 -4 -469 -7 -710 -7 l-438 0 0 79 0 78 -69 7
c-163 16 -319 71 -418 147 -60 47 -129 143 -139 194 -5 26 -12 35 -33 39 -14
3 -219 37 -456 76 -236 39 -442 73 -457 76 -35 7 -37 24 -3 24 l25 0 0 239 c0
132 -3 242 -8 245 -4 2 -52 -15 -107 -38 l-100 -43 -3 -191 -2 -191 32 -4 c26
-3 24 -4 -12 -5 -25 0 -63 3 -85 8 l-40 9 48 -3 48 -4 -3 194 -3 194 112 48
c99 41 113 50 114 72 1 15 5 7 10 -20 4 -25 8 -149 8 -277 1 -212 3 -232 19
-237 9 -2 56 -8 105 -12 l87 -6 0 361 0 361 75 0 c69 0 76 2 91 25 30 46 170
141 311 213 l139 71 -66 -69 c-151 -158 -226 -365 -200 -556 17 -129 53 -221
118 -304 l35 -45 -47 45 c-112 107 -162 315 -120 503 27 121 87 235 172 329
21 23 29 38 20 38 -22 0 -185 -96 -266 -157 -133 -99 -197 -235 -190 -405 4
-117 33 -184 112 -264 76 -75 139 -102 257 -111 90 -6 93 -6 79 12 -14 18 -14
18 10 2 20 -13 70 -18 230 -26 112 -6 206 -9 208 -7 2 2 -17 18 -41 35 -103
71 -182 196 -218 349 -30 124 -23 303 15 417 33 98 88 191 156 268 l52 57 -39
1 c-34 0 -18 11 152 94 105 51 193 94 198 94 4 1 7 -3 7 -9z m44 -1058 c38
-40 98 -91 133 -114 59 -38 78 -67 54 -82 -16 -10 -154 98 -204 159 -46 58
-109 174 -122 225 -3 14 11 -6 32 -45 21 -38 69 -103 107 -143z m1016 -126 c0
-3 -38 -37 -84 -75 l-83 -71 -64 0 c-63 0 -65 1 -129 55 l-64 55 -98 0 -98 0
0 -46 c0 -72 -24 -51 -28 24 l-3 62 326 0 c179 0 325 -2 325 -4z m-601 -185
c55 -30 67 -137 21 -186 -30 -32 -79 -41 -117 -22 -50 26 -63 74 -39 142 6 15
2 13 -18 -8 -16 -17 -26 -41 -27 -60 l-1 -32 -10 32 c-13 40 -5 73 28 112 40
48 98 56 163 22z m997 -22 c75 -70 5 -209 -88 -177 -42 15 -62 50 -55 98 3 22
1 40 -4 40 -13 0 -29 -36 -30 -67 l0 -28 -10 25 c-13 31 3 89 30 114 43 39
112 37 157 -5z m-569 -3 c1 -1 19 -65 39 -143 31 -120 40 -143 60 -152 14 -6
24 -19 24 -31 0 -19 -6 -20 -162 -19 l-163 1 89 17 c49 9 91 22 93 28 5 13
-65 273 -77 286 -3 4 -33 11 -66 16 -46 7 -35 8 51 4 61 -3 111 -6 112 -7z
m-1957 -225 c37 -12 73 -21 78 -21 6 0 14 15 17 33 4 17 12 43 18 57 10 22 12
17 17 -44 l5 -69 90 -28 c50 -16 91 -29 93 -29 1 0 2 17 2 38 0 48 41 136 74
157 37 25 48 9 16 -23 -31 -32 -50 -86 -50 -147 l0 -41 83 -24 c76 -23 82 -27
85 -54 3 -21 0 -27 -10 -24 -598 210 -768 273 -768 284 0 10 9 10 48 -2 98
-31 96 -31 112 23 l15 48 3 -57 3 -56 69 -21z m873 -261 c-45 -27 -56 -77 -51
-226 3 -105 7 -128 30 -173 24 -49 24 -51 4 -38 -11 8 -32 36 -45 62 -20 38
-25 66 -29 154 -3 71 0 122 8 147 16 51 57 94 89 94 26 0 26 0 -6 -20z m1566
-252 c10 -56 21 -86 51 -128 l38 -55 -165 -98 c-91 -54 -167 -96 -168 -95 -9
9 -107 300 -103 304 3 2 88 -27 189 -66 179 -68 253 -87 157 -39 l-48 23 0 86
c0 84 -8 110 -36 110 -29 0 -44 -32 -44 -91 0 -32 -2 -59 -5 -59 -2 0 -25 10
-50 22 -44 21 -45 23 -45 69 0 38 -4 49 -19 54 -31 9 -51 -5 -51 -36 l0 -29
-34 16 c-23 11 -37 27 -44 50 l-10 34 188 0 187 0 12 -72z m-599 38 c0 -17
-14 -33 -55 -60 l-55 -36 0 39 c0 49 -20 69 -55 53 -23 -11 -25 -17 -25 -79
l0 -68 -58 -37 -57 -37 -3 108 c-3 115 -9 130 -53 116 -17 -6 -19 -19 -19
-141 l0 -134 -85 -57 c-76 -50 -87 -55 -101 -42 -13 14 -11 34 21 185 19 93
37 179 40 192 l5 22 250 0 250 0 0 -24z m241 -200 c44 -120 79 -224 79 -230 0
-7 -16 -20 -36 -29 -34 -16 -51 -16 -400 18 -201 19 -373 35 -382 35 -16 0
114 89 131 90 4 0 7 -13 7 -29 0 -53 57 -83 79 -42 14 26 -4 76 -31 88 -17 7
6 25 166 123 l186 115 0 43 0 43 61 -3 61 -3 79 -219z"/>
<path d="M4068 3654 c-39 -21 -35 -33 10 -28 53 7 95 -22 117 -80 17 -45 17
-46 -7 -96 -28 -56 -18 -65 26 -25 117 108 -8 304 -146 229z"/>
<path d="M4003 3149 c-107 -41 -193 -149 -211 -264 -41 -255 182 -463 428
-401 164 42 265 176 264 348 0 65 -5 86 -33 142 -39 79 -111 147 -187 175 -73
28 -189 28 -261 0z m186 -152 l24 -75 76 -7 c72 -7 75 -8 55 -24 -11 -9 -37
-30 -59 -48 l-39 -32 26 -85 c14 -47 20 -83 14 -79 -6 3 -37 24 -68 46 -65 45
-52 48 -159 -38 -41 -32 -60 -43 -55 -30 19 48 56 160 56 171 0 7 -32 36 -72
66 l-72 53 96 3 96 3 23 79 c12 43 25 77 29 75 3 -2 17 -37 29 -78z"/>
<path d="M2410 2091 c0 -5 10 -21 23 -34 21 -24 35 -26 297 -51 151 -15 284
-29 296 -31 17 -4 25 -19 38 -72 45 -182 186 -278 426 -290 l105 -5 -51 35
c-28 20 -63 50 -78 68 -57 67 -96 173 -96 262 0 39 -3 47 -18 47 -26 0 -837
68 -894 75 -29 3 -48 2 -48 -4z"/>
<path d="M4273 1183 c-23 -9 -14 -57 34 -170 46 -110 62 -130 96 -118 29 12
24 44 -25 162 -56 132 -65 143 -105 126z"/>
<path d="M4139 1104 c-10 -13 -10 -24 5 -67 10 -29 28 -72 40 -97 18 -38 26
-45 51 -45 25 0 31 5 33 25 3 24 -48 160 -70 188 -14 17 -43 15 -59 -4z"/>
<path d="M1490 5720 c-7 -12 -8 -26 -3 -30 4 -5 235 -152 513 -328 497 -315
505 -320 524 -301 11 10 18 20 15 22 -2 2 -227 145 -499 317 -272 172 -505
319 -517 327 -20 13 -23 12 -33 -7z"/>
<path d="M5367 5413 c-284 -180 -517 -330 -517 -333 0 -3 7 -13 14 -23 12 -16
54 9 505 294 483 306 532 342 519 380 -2 5 -236 -138 -521 -318z"/>
<path d="M212 4483 c-130 -546 -133 -1110 -11 -1653 36 -156 127 -440 189
-585 495 -1163 1546 -1976 2785 -2154 418 -61 843 -47 1260 39 545 113 1063
359 1510 716 149 119 419 391 543 546 432 542 695 1180 767 1867 21 193 21
560 0 754 -17 163 -52 362 -88 502 -20 77 -26 90 -43 87 -33 -6 -436 -121
-441 -126 -3 -2 6 -53 20 -113 14 -59 31 -134 37 -167 l12 -58 35 5 c20 4 38
9 41 12 3 3 -6 62 -21 132 -14 70 -25 129 -22 131 4 5 189 52 191 49 1 -1 9
-29 17 -62 39 -152 74 -402 84 -595 l6 -130 -105 0 -105 0 -5 131 c-3 71 -8
133 -11 136 -4 3 -21 3 -39 -1 l-33 -6 0 -304 0 -305 34 -6 c18 -3 35 -4 38
-1 3 3 8 64 11 135 l5 131 105 0 105 0 -6 -130 c-7 -129 -28 -315 -48 -420
-13 -71 -50 -240 -52 -240 -14 2 -190 49 -192 52 -3 2 8 61 22 131 15 70 24
129 21 132 -3 3 -22 8 -41 12 -32 5 -37 3 -41 -18 -38 -186 -66 -298 -106
-421 l-47 -147 36 -15 c20 -8 39 -11 42 -8 9 10 79 221 79 238 0 18 -6 19 105
-12 53 -15 95 -32 95 -39 0 -16 -81 -253 -119 -350 -37 -93 -153 -332 -173
-357 -12 -15 -21 -12 -99 33 l-87 49 59 113 c32 61 59 117 59 123 0 9 -69 49
-75 42 -1 -2 -11 -24 -23 -49 -34 -78 -130 -248 -209 -368 -80 -122 -79 -117
-21 -151 18 -11 42 19 124 147 21 35 43 63 47 63 12 0 167 -93 167 -100 0 -9
-89 -147 -144 -225 -73 -103 -188 -244 -265 -327 l-68 -72 -76 68 -76 69 87
94 c48 51 88 99 90 106 1 7 -12 23 -29 36 l-32 23 -40 -48 c-50 -60 -274 -285
-341 -342 l-49 -43 20 -27 c11 -15 27 -27 36 -27 8 0 57 38 107 84 l92 84 71
-71 71 -71 -29 -32 c-46 -48 -200 -178 -300 -253 -103 -78 -280 -196 -294
-196 -4 0 -31 38 -59 85 l-51 84 87 55 c48 31 99 66 115 78 l27 23 -25 32 -25
32 -103 -68 c-111 -74 -267 -163 -362 -208 -33 -15 -61 -28 -63 -29 -9 -5 29
-74 40 -74 7 1 63 27 125 58 l112 58 45 -81 c25 -45 46 -87 46 -94 0 -28 -435
-219 -646 -284 l-81 -24 -27 95 c-15 52 -23 98 -19 102 4 4 61 24 127 44 l118
38 -6 31 c-4 17 -10 35 -15 40 -6 6 -48 -3 -103 -21 -158 -52 -325 -95 -450
-117 -33 -5 -38 -9 -38 -33 0 -56 8 -58 127 -34 59 12 117 24 129 28 19 5 23
-3 46 -95 l26 -101 -37 -9 c-159 -41 -429 -80 -612 -88 l-136 -6 -7 98 c-4 53
-4 100 -1 103 4 4 65 10 136 13 71 3 131 8 134 10 2 3 2 21 -1 40 l-6 34 -301
0 c-190 0 -305 -4 -309 -10 -12 -16 -9 -65 5 -66 6 -1 66 -4 132 -8 l120 -6 3
-102 3 -103 -83 0 c-97 0 -318 23 -451 45 -100 18 -246 50 -252 57 -4 4 40
187 47 192 1 2 60 -8 130 -23 70 -14 129 -23 132 -21 2 3 7 21 11 40 l6 36
-150 32 c-83 18 -214 53 -290 77 -76 25 -143 45 -148 45 -8 0 -36 -71 -30 -76
1 -1 58 -20 127 -42 69 -23 124 -45 124 -49 -1 -4 -12 -47 -24 -95 -18 -68
-27 -88 -40 -88 -23 0 -261 82 -368 126 -97 40 -338 160 -345 171 -6 10 84
173 95 173 5 0 58 -25 118 -55 60 -30 114 -55 118 -55 10 0 32 44 32 63 0 7
-61 43 -135 81 -74 37 -192 106 -262 151 l-127 83 -23 -31 c-13 -17 -23 -33
-23 -36 0 -7 182 -128 205 -137 9 -4 15 -12 13 -18 -7 -27 -94 -166 -104 -166
-15 0 -262 169 -354 242 -41 33 -118 98 -171 146 l-97 86 66 73 c36 40 68 73
71 73 3 0 49 -39 101 -85 52 -47 100 -85 106 -85 5 0 20 13 31 29 l22 28 -107
98 c-59 54 -147 141 -195 194 -49 53 -99 107 -112 119 l-22 24 -32 -29 -31
-28 90 -100 89 -100 -71 -72 -72 -72 -60 66 c-89 98 -171 196 -246 298 -78
105 -170 247 -170 262 0 6 38 33 83 60 l84 50 61 -96 c94 -145 85 -137 121
-111 17 12 31 25 31 30 0 5 -26 49 -58 97 -75 112 -127 202 -191 330 l-51 102
-32 -14 c-18 -7 -34 -20 -36 -28 -2 -8 23 -65 54 -126 32 -61 55 -113 53 -114
-4 -4 -158 -89 -170 -95 -8 -4 -141 268 -189 388 -41 103 -123 342 -118 345 7
4 192 54 194 52 1 -1 21 -58 44 -127 23 -69 43 -126 45 -128 4 -5 75 29 75 36
0 5 -16 53 -35 108 -36 106 -86 294 -106 407 -13 71 -19 76 -75 59 l-22 -7 27
-132 27 -131 -98 -25 c-54 -14 -100 -22 -102 -18 -8 12 -56 269 -70 371 -8 58
-18 152 -21 210 -3 58 -8 126 -11 153 l-5 47 104 0 104 0 6 -67 c4 -38 7 -93
7 -123 0 -73 8 -83 55 -74 l37 7 -6 49 c-9 64 -9 442 0 506 l6 49 -37 7 c-47
9 -55 -1 -55 -74 0 -30 -3 -85 -7 -122 l-6 -68 -104 0 -104 0 5 48 c3 26 8 94
11 152 10 170 72 560 93 582 4 4 50 -4 103 -19 l95 -25 -27 -132 -27 -131 22
-7 c57 -17 62 -13 75 63 7 39 24 114 37 166 13 53 22 98 20 100 -2 2 -100 31
-217 64 -118 32 -221 62 -231 65 -13 4 -21 -16 -46 -123z"/>
<path d="M1726 4345 c-38 -69 -73 -125 -78 -125 -5 0 -44 18 -87 40 l-79 39
-24 -31 -24 -31 -93 48 c-51 26 -96 44 -100 39 -24 -28 -142 -207 -138 -210 2
-3 17 0 33 6 l29 11 -24 -25 c-28 -30 -23 -32 22 -10 l32 17 -19 -22 c-23 -26
-16 -37 14 -21 20 11 21 10 10 -10 -6 -12 -10 -23 -8 -26 2 -2 28 13 58 33 47
32 51 37 37 48 -10 7 -15 19 -12 27 4 9 -1 23 -10 32 -9 9 -13 16 -8 16 4 0 3
4 -4 8 -8 5 -7 14 6 31 l18 24 68 -32 c51 -23 66 -34 57 -43 -8 -8 -15 -8 -27
2 -18 15 -20 0 -2 -19 10 -11 8 -11 -10 -2 -34 17 -38 13 -13 -14 23 -24 16
-37 -8 -13 -19 19 -27 0 -9 -20 16 -17 14 -24 -38 -106 -31 -49 -54 -90 -51
-93 2 -2 62 58 132 135 l128 140 77 -42 c74 -39 78 -40 96 -23 11 9 23 14 26
11 4 -4 14 -1 24 7 9 8 4 -3 -11 -24 -16 -21 -27 -39 -24 -42 2 -2 24 13 48
35 56 49 72 51 30 4 -17 -20 -29 -38 -26 -41 3 -3 35 16 72 42 l67 48 -42 -53
c-23 -29 -39 -55 -36 -58 2 -3 37 16 76 42 l71 47 -43 -56 c-23 -30 -40 -58
-37 -61 4 -4 51 28 148 100 15 11 -22 -42 -67 -98 -40 -48 -17 -42 62 18 41
31 75 54 75 50 0 -3 -23 -35 -51 -71 -28 -36 -48 -67 -46 -70 6 -5 237 166
237 176 0 3 -90 55 -200 115 -167 92 -198 112 -187 123 11 12 70 -14 360 -158
191 -95 350 -170 352 -167 3 3 -37 33 -90 68 -52 34 -95 64 -95 66 0 2 45 -19
101 -46 55 -28 106 -49 111 -48 6 2 -21 26 -61 53 -39 27 -71 50 -71 52 0 2
58 -26 130 -62 71 -36 136 -65 144 -65 19 0 66 21 66 30 0 3 -99 54 -219 112
l-219 106 -47 -31 -47 -31 -224 112 c-123 62 -228 112 -232 112 -4 0 -38 -56
-76 -125z"/>
<path d="M5360 4360 c-118 -60 -221 -109 -228 -109 -7 -1 -33 13 -57 29 l-44
30 -223 -111 c-222 -111 -223 -112 -193 -125 17 -7 38 -13 48 -14 9 0 72 27
140 61 129 65 133 65 49 5 -61 -44 -63 -57 -4 -27 64 33 158 73 147 63 -5 -5
-45 -33 -88 -61 -43 -29 -77 -55 -74 -57 2 -2 160 73 352 166 256 126 351 168
359 160 15 -15 12 -17 -203 -135 -99 -55 -181 -103 -181 -107 0 -10 229 -182
235 -177 2 3 -23 40 -56 83 l-60 77 76 -56 c107 -79 118 -79 57 -2 -29 37 -49
67 -46 67 4 0 38 -23 76 -51 38 -28 71 -49 75 -46 3 3 -11 26 -31 50 -20 24
-36 47 -36 51 0 4 27 -11 59 -34 75 -50 91 -51 54 -2 -50 63 -48 66 15 22 34
-24 64 -42 66 -39 3 3 -14 27 -37 54 -42 51 -35 48 41 -19 46 -40 71 -42 34
-3 -26 28 -28 39 -5 30 12 -5 14 -3 8 8 -5 8 3 4 17 -8 13 -13 28 -23 33 -23
4 0 39 18 76 39 l69 40 127 -139 c71 -76 129 -135 131 -130 2 4 -20 44 -48 88
-50 79 -51 81 -34 106 18 29 14 32 -19 15 -22 -12 -22 -12 -3 10 25 28 13 40
-16 15 -23 -19 -23 -19 -5 2 22 27 22 37 -2 24 -14 -7 -22 -7 -26 1 -4 6 -5
11 -4 12 2 1 30 15 63 30 l59 28 23 -22 c23 -21 23 -21 3 -42 -11 -12 -18 -29
-17 -38 2 -9 -4 -24 -12 -33 -12 -16 -12 -19 0 -27 8 -4 34 -20 58 -34 40 -25
56 -23 30 4 -11 10 -7 11 17 5 l30 -7 -20 23 -20 23 20 -7 c11 -5 29 -10 40
-13 17 -4 15 0 -8 21 -30 28 -28 33 5 15 11 -6 22 -8 25 -5 7 7 -129 216 -140
216 -5 0 -49 -21 -99 -47 -95 -48 -91 -48 -119 -1 -9 16 -17 14 -97 -26 l-87
-44 -70 126 c-39 69 -74 127 -80 128 -5 2 -107 -46 -225 -106z"/>
<path d="M1435 4005 c-60 -57 -107 -106 -103 -110 3 -4 28 3 55 14 l48 21 -29
-26 c-40 -35 -28 -39 30 -8 l49 26 -29 -27 c-35 -32 -29 -42 13 -21 17 9 43
21 57 27 24 8 25 8 14 -6 -17 -21 -3 -19 73 10 60 22 69 23 99 11 32 -14 128
-11 128 3 0 5 -221 148 -274 177 -19 11 -32 1 -131 -91z"/>
<path d="M5693 4017 c-79 -51 -143 -95 -143 -98 0 -16 92 -18 123 -3 31 15 36
14 97 -10 78 -32 106 -34 70 -6 -19 15 -8 13 43 -10 38 -16 71 -30 75 -30 3 0
-5 12 -19 26 l-24 26 43 -21 c45 -23 53 -19 25 11 -19 21 -8 23 27 3 63 -36
46 -6 -55 95 -60 61 -112 110 -115 109 -3 0 -69 -42 -147 -92z"/>
<path d="M1329 3833 c-2 -24 -2 -25 -6 -5 -2 12 -11 22 -19 22 -15 0 -43 -59
-45 -94 0 -17 -4 -14 -15 12 -15 35 -34 35 -35 -1 0 -21 -1 -21 -10 2 -14 35
-27 15 -31 -44 -1 -27 -6 -56 -11 -62 -12 -16 -10 -16 381 -1 305 12 313 12
310 32 -2 12 -13 22 -28 26 -20 4 -27 15 -34 48 -11 46 -26 50 -37 11 -7 -24
-7 -24 -8 4 -1 39 -20 33 -38 -12 -15 -40 -16 -40 -82 -46 -36 -3 -80 -7 -97
-9 -29 -4 -32 -1 -45 42 -17 53 -36 65 -41 26 -4 -36 -28 -45 -28 -10 0 33
-17 76 -30 76 -5 0 -10 -7 -10 -15 0 -8 -4 -15 -10 -15 -5 0 -10 9 -10 20 0
31 -20 24 -21 -7z"/>
<path d="M6035 3833 c-7 -28 -7 -28 -18 -5 -12 27 -27 29 -27 3 0 -11 -5 -23
-10 -26 -6 -4 -8 -10 -6 -14 3 -4 1 -21 -3 -37 l-8 -29 -12 43 c-14 48 -28 54
-37 15 -14 -70 -13 -69 -105 -62 -46 4 -91 8 -100 8 -10 1 -19 13 -22 29 -10
45 -23 58 -41 43 -11 -9 -16 -10 -16 -2 0 29 -21 6 -31 -34 -8 -32 -16 -45
-29 -45 -22 0 -46 -28 -34 -39 9 -8 681 -37 688 -30 5 6 -13 131 -20 138 -3 3
-9 -1 -14 -9 -8 -12 -10 -12 -16 3 -9 25 -21 21 -29 -10 -7 -27 -8 -26 -27 25
-18 50 -40 67 -51 40 -3 -8 -6 -6 -6 5 -1 27 -18 20 -26 -10z"/>
<path d="M1506 3639 c-173 -20 -337 -46 -345 -55 -11 -11 33 -34 63 -34 17 0
65 7 106 16 97 20 321 51 433 60 57 4 86 11 84 18 -6 18 -168 16 -341 -5z"/>
<path d="M5545 3649 c-4 -6 -5 -12 -4 -13 2 -2 63 -8 134 -15 72 -7 195 -24
275 -39 159 -29 252 -34 271 -15 7 7 10 15 8 17 -17 17 -492 76 -611 76 -37 0
-70 -5 -73 -11z"/>
</g>
</svg>
